<svg width="23" height="22" viewBox="0 0 23 22" fill="none" xmlns="http://www.w3.org/2000/svg">
<path d="M14.8732 10.2342H18.9102C21.0172 10.2342 22.0088 9.24266 22.0088 7.1179V3.1163C22.0088 0.982692 21.0172 0 18.9102 0H14.8732C12.7662 0 11.7746 0.982692 11.7746 3.1163V7.1179C11.7746 9.24266 12.7662 10.2342 14.8732 10.2342ZM3.09858 10.2342H7.1356C9.24264 10.2342 10.2342 9.24266 10.2342 7.1179V3.1163C10.2342 0.982692 9.24264 0 7.1356 0H3.09858C0.99154 0 0 0.982692 0 3.1163V7.1179C0 9.24266 0.99154 10.2342 3.09858 10.2342ZM3.09858 22H7.1356C9.24264 22 10.2342 21.0173 10.2342 18.8837V14.8821C10.2342 12.7573 9.24264 11.7658 7.1356 11.7658H3.09858C0.99154 11.7658 0 12.7573 0 14.8821V18.8837C0 21.0173 0.99154 22 3.09858 22ZM14.8732 22H18.9102C21.0172 22 22.0088 21.0173 22.0088 18.8837V14.8821C22.0088 12.7573 21.0172 11.7658 18.9102 11.7658H14.8732C12.7662 11.7658 11.7746 12.7573 11.7746 14.8821V18.8837C11.7746 21.0173 12.7662 22 14.8732 22Z" fill="#FACD00"/>
</svg>
