<svg width="25" height="22" viewBox="0 0 25 22" fill="none" xmlns="http://www.w3.org/2000/svg">
<path d="M7.28709 22C7.70058 22 8.00805 21.7879 8.50635 21.3214L12.3338 17.8226L19.5011 17.8332C22.6606 17.8439 24.3569 16.0839 24.3569 12.9773V4.85591C24.3569 1.74941 22.6606 0 19.5011 0H5.84516C2.68564 0 0.989258 1.73879 0.989258 4.85591V12.9773C0.989258 16.0945 2.68564 17.8332 5.84516 17.8226H6.34347V20.9079C6.34347 21.5653 6.68275 22 7.28709 22ZM6.73575 5.93736C6.36467 5.93736 6.0572 5.64049 6.0572 5.24819C6.0572 4.89831 6.36467 4.59085 6.73575 4.59085H18.6104C18.9815 4.59085 19.289 4.89831 19.289 5.24819C19.289 5.64049 18.9815 5.93736 18.6104 5.93736H6.73575ZM6.73575 9.733C6.36467 9.733 6.0572 9.43613 6.0572 9.05445C6.0572 8.69398 6.36467 8.38651 6.73575 8.38651H18.6104C18.9815 8.38651 19.289 8.69398 19.289 9.05445C19.289 9.43613 18.9815 9.733 18.6104 9.733H6.73575ZM6.73575 13.5393C6.36467 13.5393 6.0572 13.2318 6.0572 12.8607C6.0572 12.4684 6.36467 12.1822 6.73575 12.1822H14.4649C14.8254 12.1822 15.1329 12.4684 15.1329 12.8607C15.1329 13.2318 14.8254 13.5393 14.4649 13.5393H6.73575Z" fill="#FACD00"/>
</svg>
